<svg id="Pokeball" xmlns="http://www.w3.org/2000/svg" xmlns:xlink="http://www.w3.org/1999/xlink" viewBox="0 0 800 800"><defs><style>.cls-1{fill:none;}.cls-2{fill:#d10000;}.cls-3,.cls-6{fill:#fff;}.cls-4{fill:#999;}.cls-5{clip-path:url(#clip-path);}.cls-6{stroke:#000;stroke-miterlimit:10;stroke-width:24px;}.cls-7{fill:#b3b3b3;}</style><clipPath id="clip-path"><circle class="cls-1" cx="400" cy="400" r="300"/></clipPath></defs><title>pokeball-greyscale</title><g id="Ball"><path class="cls-2" d="M700,400H100c0-165.69,134.31-300,300-300S700,234.31,700,400Z"/><path class="cls-3" d="M700,400c0,165.69-134.31,300-300,300S100,565.69,100,400Z"/></g><g id="BallGreyscale"><path class="cls-4" d="M700,400H100c0-165.69,134.31-300,300-300S700,234.31,700,400Z"/><path class="cls-3" d="M700,400c0,165.69-134.31,300-300,300S100,565.69,100,400Z"/></g><g id="Line"><g class="cls-5"><line class="cls-6" x1="700" y1="400" x2="100" y2="400"/></g></g><g id="Inner_Ring" data-name="Inner Ring"><circle class="cls-3" cx="400" cy="400" r="81"/><path d="M400,328a72,72,0,1,1-72,72,72.08,72.08,0,0,1,72-72m0-18a90,90,0,1,0,90,90,90,90,0,0,0-90-90Z"/></g><g id="Button"><circle class="cls-3" cx="400" cy="400" r="44"/><path class="cls-7" d="M400,357a43,43,0,1,1-43,43,43,43,0,0,1,43-43m0-2a45,45,0,1,0,45,45,45,45,0,0,0-45-45Z"/></g></svg>